<?xml version="1.0" encoding="utf-8"?>
<!-- Generator: Adobe Illustrator 19.2.1, SVG Export Plug-In . SVG Version: 6.00 Build 0)  -->
<svg version="1.1" id="Layer_1" xmlns="http://www.w3.org/2000/svg" xmlns:xlink="http://www.w3.org/1999/xlink" x="0px" y="0px"
	 viewBox="0 0 404 54" style="enable-background:new 0 0 404 54;" xml:space="preserve">
<style type="text/css">
	.st0{fill:#FFFCF6;}
	.st1{font-family:'JosefinSans-Bold';}
	.st2{font-size:47px;}
	.st3{fill:#F6EF23;}
	.st4{fill:none;stroke:#FFBC00;stroke-width:3;}
	.st5{fill:none;stroke:#FF8D18;stroke-width:3;}
	.st6{fill:none;stroke:#FF7734;stroke-width:3;}
	.st7{fill:none;stroke:#FF6D4D;stroke-width:3;}
	.st8{fill:#699E2E;stroke:#699E2E;stroke-width:3;}
</style>
<text transform="matrix(1 0 0 1 -3 52)" class="st0 st1 st2">ROTTEN MANG</text>
<text transform="matrix(1 0 0 1 338.6393 52)" class="st0 st1 st2"> </text>
<text transform="matrix(1 0 0 1 378.3103 52)" class="st0 st1 st2"> </text>
<text transform="matrix(1 0 0 1 378.311 52)" class="st0 st1 st2">S</text>
<g id="mango" transform="translate(344.000000, 0.000000)">
	<ellipse id="Oval-1" class="st3" cx="15.5" cy="33.6" rx="2" ry="2"/>
	<ellipse id="Oval-2" class="st4" cx="15.5" cy="33.6" rx="5.3" ry="5.3"/>
	<ellipse id="Oval-2_1_" class="st5" cx="15.5" cy="33.6" rx="9.4" ry="9.4"/>
	<ellipse id="Oval-2_2_" class="st6" cx="15.5" cy="33.6" rx="13.5" ry="13.5"/>
	<ellipse id="Oval-2_3_" class="st7" cx="15.5" cy="33.6" rx="18.5" ry="18.4"/>
	<path id="Path-3" class="st8" d="M22.9,9.3c-3.1,2-7.8,1.1-7.8,1.1s-0.6-4.9,4.2-7.2s8.5,0.7,8.5,0.7S26.2,7.2,22.9,9.3z"/>
</g>
</svg>
